<svg xmlns="http://www.w3.org/2000/svg" width="1024" height="1024" viewBox="0 0 128 128" fill="none" role="img" aria-label="CommitBook Matched bridges"><rect width="128" height="128" fill="#fbf9fd"/><g transform="translate(16 16)"><g data-layer="page-oldest"><rect x="29" y="35" width="41" height="49" rx="5" fill="#c5b5e6"/></g><g data-layer="page-middle"><rect x="37" y="24" width="41" height="49" rx="5" fill="#a186d7"/></g><g data-layer="page-current"><path d="M50 13H72L86 27V57Q86 62 81 62H50Q45 62 45 57V18Q45 13 50 13Z" fill="#7952c6" /></g><g data-layer="fold"><path d="M72 13V22Q72 27 77 27H86Z" fill="#dbd0f0" /></g><g data-layer="text"><path d="M54 37H77M54 46H77M54 54H70" fill="none" stroke="#fbf9fd" stroke-width="3.2" stroke-linecap="round" stroke-linejoin="round"/></g><g data-layer="timeline"><path d="M15 55V80" fill="none" stroke="#a990db" stroke-width="3" stroke-linecap="round" stroke-linejoin="round"/><path d="M15 55H46" fill="none" stroke="#7952c6" stroke-width="4" stroke-linecap="round" stroke-linejoin="round"/><circle cx="15" cy="55" r="7" fill="#7952c6"/><path d="M11.5 55L14 57.5L19 52" fill="none" stroke="#fbf9fd" stroke-width="2.3" stroke-linecap="round" stroke-linejoin="round"/><path d="M15 68H38" fill="none" stroke="#a186d7" stroke-width="4" stroke-linecap="round" stroke-linejoin="round"/><circle cx="15" cy="68" r="4.3" fill="#a186d7"/><path d="M15 80H30" fill="none" stroke="#c5b5e6" stroke-width="4" stroke-linecap="round" stroke-linejoin="round"/><circle cx="15" cy="80" r="4.3" fill="#c5b5e6"/></g></g></svg>